<?xml version="1.0" encoding="UTF-8"?>
<svg id="Layer_1" xmlns="http://www.w3.org/2000/svg" version="1.1" xmlns:xlink="http://www.w3.org/1999/xlink" viewBox="0 0 1284 2778">
  <!-- Generator: Adobe Illustrator 29.8.1, SVG Export Plug-In . SVG Version: 2.1.1 Build 2)  -->
  <defs>
    <style>
      .st0 {
        fill: #fff;
        letter-spacing: 0em;
      }

      .st1 {
        fill: #22a6a5;
      }

      .st2, .st3 {
        fill: #3878a6;
      }

      .st4 {
        font-family: Cambria-Bold, Cambria;
        font-size: 64px;
        font-weight: 700;
        isolation: isolate;
      }

      .st5 {
        fill: url(#linear-gradient);
      }

      .st3 {
        letter-spacing: 0em;
      }
    </style>
    <linearGradient id="linear-gradient" x1="566.6" y1="1464.5" x2="567.6" y2="1463.5" gradientTransform="translate(-727461 4068306) scale(1284 -2778)" gradientUnits="userSpaceOnUse">
      <stop offset="0" stop-color="#0a2a4a"/>
      <stop offset=".2" stop-color="#1a3a5a"/>
      <stop offset=".5" stop-color="#2a4a6a"/>
      <stop offset=".8" stop-color="#1a3a5a"/>
      <stop offset="1" stop-color="#0a1a2a"/>
    </linearGradient>
  </defs>
  <polyline class="st5" points="0 0 1284 0 1284 2778 0 2778"/>
  <g>
    <g>
      <path class="st1" d="M481.9,1387.6h0c-.6-1.7-2.2-3-4.2-3s-4.4,2-4.4,4.4,0,0,0,0h0,0c0,2.4,2,4.3,4.4,4.3s3.5-1.2,4.1-2.9h0l85,7.3,56.4-8.8-56.4-8.8-85,7.3h0Z"/>
      <polygon class="st2" points="535.9 1280.8 533.9 1282.9 581.8 1341.1 623.3 1370.2 594.2 1328.7 535.9 1280.8"/>
      <polygon class="st2" points="580.4 1413 572.7 1412.1 567.9 1418.6 575.7 1419.6 580.4 1413"/>
      <polygon class="st2" points="750.1 1282.9 748.1 1280.8 689.8 1328.8 660.8 1370.2 702.2 1341.2 750.1 1282.9"/>
      <polygon class="st2" points="534 1495 536.1 1497 594.3 1449.1 623.4 1407.6 581.9 1436.7 534 1495"/>
      <polygon class="st2" points="747.8 1496.9 749.9 1494.8 701.9 1436.6 660.5 1407.5 689.6 1449 747.8 1496.9"/>
      <path class="st1" d="M643.4,1228.9h0c1.7-.6,3-2.2,3-4.2s-2-4.4-4.4-4.4,0,0,0,0h0s0,0,0,0c-2.4,0-4.3,2-4.3,4.4s1.2,3.5,2.9,4.1h0s-7.3,85-7.3,85l8.8,56.4,8.8-56.4-7.3-85h0Z"/>
      <path class="st1" d="M802.1,1390.4h0c.6,1.7,2.2,3,4.2,3s4.4-2,4.4-4.4,0,0,0,0h0,0c0-2.4-2-4.3-4.4-4.3s-3.5,1.2-4.1,2.9h0l-85-7.3-56.4,8.8,56.4,8.8,85-7.3h0Z"/>
      <path class="st1" d="M640.6,1549.1h0c-1.7.6-3,2.2-3,4.2s2,4.4,4.4,4.4,0,0,0,0h0s0,0,0,0c2.4,0,4.3-2,4.3-4.4s-1.2-3.5-2.9-4.1h0s7.3-85,7.3-85l-8.8-56.4-8.8,56.4,7.3,85h0Z"/>
      <polygon class="st2" points="666.2 1451.6 665.1 1459.3 671.5 1464.1 672.6 1456.4 666.2 1451.6"/>
      <polygon class="st2" points="617.9 1451.6 611.5 1456.4 612.6 1464.1 619 1459.3 617.9 1451.6"/>
      <polygon class="st2" points="567.9 1359.4 572.7 1365.9 580.4 1365 575.7 1358.4 567.9 1359.4"/>
      <polygon class="st2" points="612.5 1314.4 611.4 1322.1 617.9 1326.9 618.9 1319.2 612.5 1314.4"/>
      <polygon class="st2" points="671.5 1314.4 665.1 1319.2 666.2 1326.9 672.6 1322.1 671.5 1314.4"/>
      <polygon class="st2" points="716.9 1359.4 709.1 1358.4 704.4 1365 712.1 1365.9 716.9 1359.4"/>
      <polygon class="st2" points="704.3 1413 709.1 1419.5 716.8 1418.6 712.1 1412 704.3 1413"/>
    </g>
    <text class="st4" transform="translate(504.4 1669)"><tspan class="st0" x="0" y="0">Stellar</tspan><tspan class="st3" x="207.3" y="0">IQ</tspan></text>
  </g>
</svg>